<svg id="Layer_1" data-name="Layer 1" xmlns="http://www.w3.org/2000/svg" viewBox="0 0 255 219.95"><defs><style>.cls-1{fill:#f6f18d;stroke:#858b91;stroke-miterlimit:10;}.cls-2{fill:#858b91;}.cls-3{fill:#8ed6e8;}</style></defs><circle class="cls-1" cx="77.4" cy="38.13" r="37.63"/><path class="cls-2" d="M203.83,105.47a59.77,59.77,0,0,0,.86-10A58.89,58.89,0,0,0,89.25,79,70.89,70.89,0,1,0,66.69,218.27h.09c1.36.08,2.73.13,4.12.13s2.65,0,4-.12l123.53.12a56.6,56.6,0,0,0,5.43-112.94Z" transform="translate(0 -24.22)"/><rect class="cls-3" x="62.53" y="170.81" width="9.41" height="77.96" rx="4.7" transform="translate(113.9 -29.73) rotate(30)"/><rect class="cls-3" x="110.33" y="170.81" width="9.41" height="77.96" rx="4.7" transform="translate(120.3 -53.63) rotate(30)"/><rect class="cls-3" x="158.13" y="170.81" width="9.41" height="77.96" rx="4.7" transform="translate(126.71 -77.53) rotate(30)"/></svg>